adventpro-RegularItalic.ufo
<glyph name="quotedbl" format="1">
  <advance width="266"/>
  <unicode hex="0022"/>
  <outline>
    <contour>
      <point x="315.002" y="701" type="line"/>
      <point x="318.828" y="719"/>
      <point x="343.442" y="736"/>
      <point x="369.442" y="736"/>
      <point x="386.828" y="719"/>
      <point x="383.002" y="701" type="qcurve"/>
      <point x="344.558" y="586" type="line"/>
      <point x="304.558" y="586" type="line"/>
    </contour>
    <contour>
      <point x="180.002" y="701" type="line"/>
      <point x="183.828" y="719"/>
      <point x="208.442" y="736"/>
      <point x="234.442" y="736"/>
      <point x="251.828" y="719"/>
      <point x="248.002" y="701" type="qcurve"/>
      <point x="208.558" y="586" type="line"/>
      <point x="169.558" y="586" type="line"/>
    </contour>
  </outline>
</glyph>
<glyph name="numbersign" format="1">
  <advance width="609"/>
  <unicode hex="0023"/>
  <outline>
    <contour>
      <point x="442.651" y="243" type="line"/>
      <point x="628.651" y="243" type="line"/>
      <point x="617.173" y="189" type="line"/>
      <point x="418.173" y="189" type="line"/>
      <point x="334" y="0" type="line"/>
      <point x="279" y="0" type="line"/>
      <point x="363.173" y="189" type="line"/>
      <point x="245.173" y="189" type="line"/>
      <point x="161" y="0" type="line"/>
      <point x="106" y="0" type="line"/>
      <point x="190.173" y="189" type="line"/>
      <point x="70.1732" y="189" type="line"/>
      <point x="81.6512" y="243" type="line"/>
      <point x="214.651" y="243" type="line"/>
      <point x="289.786" y="413" type="line"/>
      <point x="117.786" y="413" type="line"/>
      <point x="129.689" y="469" type="line"/>
      <point x="315.689" y="469" type="line"/>
      <point x="417.364" y="698" type="line"/>
      <point x="472.364" y="698" type="line"/>
      <point x="370.689" y="469" type="line"/>
      <point x="488.689" y="469" type="line"/>
      <point x="591.364" y="698" type="line"/>
      <point x="645.364" y="698" type="line"/>
      <point x="542.689" y="469" type="line"/>
      <point x="676.689" y="469" type="line"/>
      <point x="664.786" y="413" type="line"/>
      <point x="518.786" y="413" type="line"/>
    </contour>
    <contour>
      <point x="388.651" y="243" type="line"/>
      <point x="463.786" y="413" type="line"/>
      <point x="344.786" y="413" type="line"/>
      <point x="269.651" y="243" type="line"/>
    </contour>
  </outline>
</glyph>
<glyph name="percent" format="1">
  <advance width="711"/>
  <unicode hex="0025"/>
  <outline>
    <contour>
      <point x="48" y="0" type="line"/>
      <point x="733.365" y="698" type="line"/>
      <point x="797.365" y="698" type="line"/>
      <point x="115" y="0" type="line"/>
    </contour>
    <contour>
      <point x="326.34" y="712" type="qcurve" smooth="yes"/>
      <point x="366.34" y="712"/>
      <point x="424.051" y="673"/>
      <point x="449.022" y="607"/>
      <point x="440.307" y="566" type="qcurve" smooth="yes"/>
      <point x="431.805" y="526"/>
      <point x="378.776" y="460"/>
      <point x="304.486" y="421"/>
      <point x="264.486" y="421" type="qcurve" smooth="yes"/>
      <point x="224.486" y="421"/>
      <point x="165.776" y="460"/>
      <point x="140.805" y="526"/>
      <point x="149.307" y="566" type="qcurve" smooth="yes"/>
      <point x="158.022" y="607"/>
      <point x="211.051" y="673"/>
      <point x="286.34" y="712"/>
    </contour>
    <contour>
      <point x="315.5" y="661" type="qcurve" smooth="yes"/>
      <point x="289.5" y="661"/>
      <point x="240.973" y="635"/>
      <point x="205.833" y="592"/>
      <point x="200.307" y="566" type="qcurve" smooth="yes"/>
      <point x="194.993" y="541"/>
      <point x="211.853" y="498"/>
      <point x="249.327" y="472"/>
      <point x="275.327" y="472" type="qcurve" smooth="yes"/>
      <point x="301.327" y="472"/>
      <point x="348.853" y="498"/>
      <point x="383.993" y="541"/>
      <point x="389.307" y="566" type="qcurve" smooth="yes"/>
      <point x="394.833" y="592"/>
      <point x="377.973" y="635"/>
      <point x="341.5" y="661"/>
    </contour>
    <contour>
      <point x="592.666" y="276" type="qcurve" smooth="yes"/>
      <point x="633.666" y="276"/>
      <point x="690.376" y="237"/>
      <point x="715.347" y="171"/>
      <point x="706.845" y="131" type="qcurve" smooth="yes"/>
      <point x="698.343" y="91"/>
      <point x="645.314" y="25"/>
      <point x="572.024" y="-14"/>
      <point x="531.024" y="-14" type="qcurve" smooth="yes"/>
      <point x="492.024" y="-14"/>
      <point x="434.314" y="25"/>
      <point x="409.343" y="91"/>
      <point x="417.845" y="131" type="qcurve" smooth="yes"/>
      <point x="426.347" y="171"/>
      <point x="479.376" y="237"/>
      <point x="553.666" y="276"/>
    </contour>
    <contour>
      <point x="582.038" y="226" type="qcurve" smooth="yes"/>
      <point x="557.038" y="226"/>
      <point x="508.724" y="201"/>
      <point x="474.584" y="158"/>
      <point x="468.845" y="131" type="qcurve" smooth="yes"/>
      <point x="463.318" y="105"/>
      <point x="479.179" y="62"/>
      <point x="516.865" y="37"/>
      <point x="541.865" y="37" type="qcurve" smooth="yes"/>
      <point x="568.865" y="37"/>
      <point x="617.179" y="62"/>
      <point x="651.318" y="105"/>
      <point x="656.845" y="131" type="qcurve" smooth="yes"/>
      <point x="662.584" y="158"/>
      <point x="646.724" y="201"/>
      <point x="609.038" y="226"/>
    </contour>
  </outline>
</glyph>
<glyph name="parenright" format="1">
  <advance width="182"/>
  <unicode hex="0029"/>
  <outline>
    <contour>
      <point x="209.234" y="815" type="line"/>
      <point x="240.195" y="796"/>
      <point x="275.567" y="746"/>
      <point x="283.476" y="675"/>
      <point x="272.848" y="625" type="qcurve" smooth="yes"/>
      <point x="154.879" y="70" type="line" smooth="yes"/>
      <point x="144.676" y="22"/>
      <point x="113.71" y="-39"/>
      <point x="75.6331" y="-77"/>
      <point x="32.6816" y="-105"/>
      <point x="10.7058" y="-119" type="qcurve"/>
      <point x="-0.217083" y="-81" type="line"/>
      <point x="19.3336" y="-69"/>
      <point x="50.7103" y="-39"/>
      <point x="75.3623" y="-3"/>
      <point x="92.0771" y="38"/>
      <point x="97.1785" y="62" type="qcurve" smooth="yes"/>
      <point x="117.584" y="158"/>
      <point x="157.97" y="348"/>
      <point x="198.568" y="539"/>
      <point x="218.973" y="635" type="qcurve" smooth="yes"/>
      <point x="223.862" y="658"/>
      <point x="224.577" y="699"/>
      <point x="215.229" y="735"/>
      <point x="196.818" y="766"/>
      <point x="182.369" y="778" type="qcurve"/>
    </contour>
  </outline>
</glyph>
<glyph name="hyphen" format="1">
  <advance width="391"/>
  <unicode hex="002D"/>
  <outline>
    <contour>
      <point x="109.473" y="355" type="line"/>
      <point x="121.804" y="413" type="line"/>
      <point x="440.804" y="413" type="line"/>
      <point x="428.473" y="355" type="line"/>
    </contour>
  </outline>
</glyph>
<glyph name="period" format="1">
  <advance width="136"/>
  <unicode hex="002E"/>
  <outline>
    <contour>
      <point x="80.1157" y="57" type="qcurve" smooth="yes"/>
      <point x="94.1157" y="57"/>
      <point x="110.077" y="38"/>
      <point x="107.101" y="24" type="qcurve" smooth="yes"/>
      <point x="104.126" y="10"/>
      <point x="80.087" y="-9"/>
      <point x="66.087" y="-9" type="qcurve" smooth="yes"/>
      <point x="53.087" y="-9"/>
      <point x="37.1255" y="10"/>
      <point x="40.1013" y="24" type="qcurve" smooth="yes"/>
      <point x="43.0771" y="38"/>
      <point x="67.1157" y="57"/>
    </contour>
  </outline>
</glyph>
<glyph name="nine" format="1">
  <advance width="480"/>
  <unicode hex="0039"/>
  <outline>
    <contour>
      <point x="385.277" y="707" type="qcurve" smooth="yes"/>
      <point x="474.277" y="707"/>
      <point x="522.312" y="646" type="qcurve" smooth="yes"/>
      <point x="571.133" y="584"/>
      <point x="552.216" y="495" type="qcurve" smooth="yes"/>
      <point x="497.588" y="238" type="line" smooth="yes"/>
      <point x="488.874" y="197"/>
      <point x="447.294" y="119"/>
      <point x="413.855" y="84" type="qcurve" smooth="yes"/>
      <point x="379.99" y="47"/>
      <point x="269.787" y="-1"/>
      <point x="203.787" y="-1" type="qcurve" smooth="yes"/>
      <point x="168.787" y="-1" type="line"/>
      <point x="180.478" y="54" type="line"/>
      <point x="218.478" y="54" type="line" smooth="yes"/>
      <point x="256.478" y="54"/>
      <point x="326.579" y="78"/>
      <point x="358.681" y="102" type="qcurve" smooth="yes"/>
      <point x="391.995" y="127"/>
      <point x="434.086" y="198"/>
      <point x="444.076" y="245" type="qcurve" smooth="yes"/>
      <point x="466.82" y="352" type="line"/>
      <point x="441.144" y="330"/>
      <point x="386.554" y="299"/>
      <point x="328.366" y="284"/>
      <point x="298.366" y="284" type="qcurve" smooth="yes"/>
      <point x="252.366" y="284"/>
      <point x="182.955" y="315"/>
      <point x="158.332" y="345" type="qcurve" smooth="yes"/>
      <point x="109.511" y="407"/>
      <point x="128.216" y="495" type="qcurve" smooth="yes"/>
      <point x="147.133" y="584"/>
      <point x="222.312" y="646" type="qcurve" smooth="yes"/>
      <point x="298.277" y="707"/>
    </contour>
    <contour>
      <point x="373.587" y="652" type="qcurve" smooth="yes"/>
      <point x="330.587" y="652"/>
      <point x="250.66" y="610"/>
      <point x="193.568" y="539"/>
      <point x="184.216" y="495" type="qcurve" smooth="yes"/>
      <point x="175.076" y="452"/>
      <point x="201.984" y="381"/>
      <point x="264.057" y="339"/>
      <point x="307.057" y="339" type="qcurve" smooth="yes"/>
      <point x="351.057" y="339"/>
      <point x="430.984" y="381"/>
      <point x="488.076" y="452"/>
      <point x="497.216" y="495" type="qcurve" smooth="yes"/>
      <point x="506.568" y="539"/>
      <point x="479.66" y="610"/>
      <point x="417.587" y="652"/>
    </contour>
  </outline>
</glyph>
<glyph name="semicolon" format="1">
  <advance width="149"/>
  <unicode hex="003B"/>
  <outline>
    <contour>
      <point x="45.4395" y="35" type="line"/>
      <point x="65.6906" y="55"/>
      <point x="86.9803" y="94"/>
      <point x="92.3812" y="110" type="qcurve"/>
      <point x="80.8063" y="112"/>
      <point x="68.8449" y="131"/>
      <point x="71.3956" y="143" type="qcurve" smooth="yes"/>
      <point x="74.3714" y="157"/>
      <point x="97.41" y="176"/>
      <point x="111.41" y="176" type="qcurve" smooth="yes"/>
      <point x="125.41" y="176"/>
      <point x="140.584" y="158"/>
      <point x="138.396" y="143" type="qcurve"/>
      <point x="133.294" y="119"/>
      <point x="114.217" y="81"/>
      <point x="90.8405" y="51"/>
      <point x="69.3768" y="30"/>
      <point x="59.8889" y="23" type="qcurve"/>
    </contour>
    <contour>
      <point x="191.622" y="384" type="qcurve" smooth="yes"/>
      <point x="188.646" y="370"/>
      <point x="165.607" y="351"/>
      <point x="151.607" y="351" type="qcurve" smooth="yes"/>
      <point x="138.607" y="351"/>
      <point x="121.646" y="370"/>
      <point x="124.622" y="384" type="qcurve" smooth="yes"/>
      <point x="127.598" y="398"/>
      <point x="152.636" y="417"/>
      <point x="165.636" y="417" type="qcurve" smooth="yes"/>
      <point x="179.636" y="417"/>
      <point x="194.598" y="398"/>
    </contour>
  </outline>
</glyph>
<glyph name="greater" format="1">
  <advance width="374"/>
  <unicode hex="003E"/>
  <outline>
    <contour>
      <point x="156.896" y="597" type="line"/>
      <point x="202.973" y="635" type="line"/>
      <point x="421.095" y="358" type="line"/>
      <point x="84.792" y="79" type="line"/>
      <point x="55.0817" y="118" type="line"/>
      <point x="344.67" y="356" type="line"/>
    </contour>
  </outline>
</glyph>
<glyph name="question" format="1">
  <advance width="404"/>
  <unicode hex="003F"/>
  <outline>
    <contour>
      <point x="137.655" y="530" type="line"/>
      <point x="150.621" y="591"/>
      <point x="219.413" y="670"/>
      <point x="309.49" y="708"/>
      <point x="353.277" y="707" type="qcurve" smooth="yes"/>
      <point x="397.065" y="706"/>
      <point x="467.35" y="665"/>
      <point x="500.196" y="589"/>
      <point x="488.93" y="536" type="qcurve" smooth="yes"/>
      <point x="477.24" y="481"/>
      <point x="411.873" y="404"/>
      <point x="370.583" y="365" type="qcurve" smooth="yes"/>
      <point x="351.97" y="348"/>
      <point x="318.38" y="317"/>
      <point x="288.941" y="282"/>
      <point x="266.376" y="237"/>
      <point x="259.787" y="206" type="qcurve" smooth="yes"/>
      <point x="256.811" y="192"/>
      <point x="250.434" y="162"/>
      <point x="244.27" y="133"/>
      <point x="241.294" y="119" type="qcurve"/>
      <point x="190.294" y="119" type="line"/>
      <point x="209.849" y="211" type="line" smooth="yes"/>
      <point x="216.864" y="244"/>
      <point x="240.917" y="296"/>
      <point x="272.632" y="337"/>
      <point x="307.071" y="372"/>
      <point x="324.472" y="388" type="qcurve" smooth="yes"/>
      <point x="348.148" y="410"/>
      <point x="392.863" y="451"/>
      <point x="426.491" y="501"/>
      <point x="433.293" y="533" type="qcurve" smooth="yes"/>
      <point x="441.795" y="573"/>
      <point x="419.06" y="626"/>
      <point x="370.799" y="653"/>
      <point x="342.012" y="654" type="qcurve" smooth="yes"/>
      <point x="312.225" y="655"/>
      <point x="250.698" y="629"/>
      <point x="203.795" y="573"/>
      <point x="194.655" y="530" type="qcurve"/>
    </contour>
    <contour>
      <point x="204.116" y="57" type="qcurve" smooth="yes"/>
      <point x="217.116" y="57"/>
      <point x="233.077" y="38"/>
      <point x="230.101" y="24" type="qcurve" smooth="yes"/>
      <point x="227.126" y="10"/>
      <point x="203.087" y="-9"/>
      <point x="190.087" y="-9" type="qcurve" smooth="yes"/>
      <point x="176.087" y="-9"/>
      <point x="159.126" y="10"/>
      <point x="162.101" y="24" type="qcurve" smooth="yes"/>
      <point x="165.077" y="38"/>
      <point x="190.116" y="57"/>
    </contour>
  </outline>
</glyph>
<glyph name="Q" format="1">
  <advance width="490"/>
  <unicode hex="0051"/>
  <outline>
    <contour>
      <point x="280.628" y="50" type="line" smooth="yes"/>
      <point x="271.913" y="9"/>
      <point x="290.498" y="-40"/>
      <point x="342.034" y="-61"/>
      <point x="382.034" y="-61" type="qcurve"/>
      <point x="366.256" y="-107" type="line"/>
      <point x="308.256" y="-107"/>
      <point x="237.058" y="-75"/>
      <point x="212.937" y="-5"/>
      <point x="224.84" y="51" type="qcurve" smooth="yes"/>
      <point x="250.772" y="173" type="line"/>
      <point x="306.772" y="173" type="line"/>
    </contour>
    <component base="O"/>
  </outline>
</glyph>
<glyph name="T" format="1">
  <advance width="416"/>
  <unicode hex="0054"/>
    <anchor name="bottom" x="208" y="0"/>
    <anchor name="top" x="364.229" y="735"/>
  <outline>
    <contour>
      <point x="369.765" y="648" type="line"/>
      <point x="232" y="0" type="line"/>
      <point x="177" y="0" type="line"/>
      <point x="314.765" y="648" type="line"/>
      <point x="144.765" y="648" type="line"/>
      <point x="155.395" y="698" type="line"/>
      <point x="556.395" y="698" type="line"/>
      <point x="545.765" y="648" type="line"/>
    </contour>
    <contour>
      <point x="208" y="0" type="move" name="bottom"/>
    </contour>
    <contour>
      <point x="364.229" y="735" type="move" name="top"/>
    </contour>
  </outline>
</glyph>
<glyph name="U" format="1">
  <advance width="496"/>
  <unicode hex="0055"/>
    <anchor name="top" x="404.229" y="735"/>
    <anchor name="ogonek" x="247" y="0"/>
  <outline>
    <contour>
      <point x="495.323" y="185" type="line" smooth="yes"/>
      <point x="473.855" y="84"/>
      <point x="401.652" y="36" type="qcurve" smooth="yes"/>
      <point x="331.662" y="-11"/>
      <point x="245.662" y="-11" type="qcurve" smooth="yes"/>
      <point x="158.662" y="-11"/>
      <point x="106.652" y="36" type="qcurve"/>
      <point x="56.0673" y="85"/>
      <point x="77.323" y="185" type="qcurve" smooth="yes"/>
      <point x="186.364" y="698" type="line"/>
      <point x="241.364" y="698" type="line"/>
      <point x="132.536" y="186" type="line" smooth="yes"/>
      <point x="116.594" y="111"/>
      <point x="156.729" y="74" type="qcurve" smooth="yes"/>
      <point x="189.927" y="42"/>
      <point x="255.927" y="42" type="qcurve" smooth="yes"/>
      <point x="291.927" y="42"/>
      <point x="354.966" y="61"/>
      <point x="379.217" y="81" type="qcurve" smooth="yes"/>
      <point x="401.256" y="100"/>
      <point x="433.309" y="152"/>
      <point x="440.536" y="186" type="qcurve" smooth="yes"/>
      <point x="549.364" y="698" type="line"/>
      <point x="604.364" y="698" type="line"/>
    </contour>
    <contour>
      <point x="404.229" y="735" type="move" name="top"/>
    </contour>
    <contour>
      <point x="247" y="0" type="move" name="ogonek"/>
    </contour>
  </outline>
</glyph>
<glyph name="a" format="1">
  <advance width="446"/>
  <unicode hex="0061"/>
    <anchor name="top" x="338.843" y="545"/>
    <anchor name="ogonek" x="222" y="0"/>
  <outline>
    <contour>
      <point x="428.182" y="349" type="qcurve"/>
      <point x="436.897" y="390"/>
      <point x="416.675" y="436"/>
      <point x="391.438" y="449" type="qcurve" smooth="yes"/>
      <point x="374.351" y="458"/>
      <point x="326.626" y="464"/>
      <point x="298.626" y="464" type="qcurve"/>
      <point x="309.766" y="507" type="line"/>
      <point x="344.766" y="507"/>
      <point x="413.853" y="498"/>
      <point x="441.027" y="480" type="qcurve" smooth="yes"/>
      <point x="482.288" y="453"/>
      <point x="485.032" y="353"/>
      <point x="471.004" y="287" type="qcurve" smooth="yes"/>
      <point x="464.84" y="258"/>
      <point x="452.724" y="201"/>
      <point x="440.608" y="144"/>
      <point x="428.28" y="86"/>
      <point x="416.164" y="29"/>
      <point x="410" y="0" type="qcurve"/>
      <point x="410" y="0"/>
      <point x="375.362" y="-3"/>
      <point x="322.725" y="-6"/>
      <point x="268.874" y="-10"/>
      <point x="249.874" y="-10" type="qcurve"/>
      <point x="185.449" y="-12"/>
      <point x="89.4009" y="16"/>
      <point x="46.1929" y="95"/>
      <point x="61.7095" y="168" type="qcurve" smooth="yes"/>
      <point x="64.0476" y="179"/>
      <point x="68.2987" y="199"/>
      <point x="72.7624" y="220"/>
      <point x="77.2261" y="241"/>
      <point x="79.3517" y="251" type="qcurve" smooth="yes"/>
      <point x="88.2791" y="293"/>
      <point x="125.607" y="351"/>
      <point x="176.047" y="386"/>
      <point x="234.448" y="402"/>
      <point x="264.448" y="402" type="qcurve" smooth="yes"/>
      <point x="313.448" y="402"/>
      <point x="397.433" y="369"/>
    </contour>
    <contour>
      <point x="418.192" y="302" type="qcurve"/>
      <point x="394.168" y="316"/>
      <point x="340.057" y="339"/>
      <point x="281.245" y="354"/>
      <point x="249.245" y="354" type="qcurve" smooth="yes"/>
      <point x="231.245" y="354"/>
      <point x="185.057" y="339"/>
      <point x="143.492" y="294"/>
      <point x="133.927" y="249" type="qcurve" smooth="yes"/>
      <point x="130.313" y="232"/>
      <point x="121.386" y="190"/>
      <point x="118.197" y="175" type="qcurve" smooth="yes"/>
      <point x="110.545" y="139"/>
      <point x="114.28" y="86"/>
      <point x="144.053" y="52"/>
      <point x="205.652" y="36"/>
      <point x="256.077" y="38" type="qcurve"/>
      <point x="280.502" y="40"/>
      <point x="320.927" y="42"/>
      <point x="348.565" y="45"/>
      <point x="363.778" y="46"/>
      <point x="363.778" y="46" type="qcurve"/>
      <point x="368.454" y="68"/>
      <point x="377.381" y="110"/>
      <point x="386.521" y="153"/>
      <point x="395.661" y="196"/>
      <point x="404.589" y="238"/>
      <point x="413.728" y="281"/>
    </contour>
    <contour>
      <point x="338.843" y="545" type="move" name="top"/>
    </contour>
    <contour>
      <point x="222" y="0" type="move" name="ogonek"/>
    </contour>
  </outline>
</glyph>
<glyph name="b" format="1">
  <advance width="455"/>
  <unicode hex="0062"/>
  <outline>
    <contour>
      <point x="197.114" y="471" type="line"/>
      <point x="234.302" y="486"/>
      <point x="317.979" y="508"/>
      <point x="366.979" y="508" type="qcurve" smooth="yes"/>
      <point x="396.979" y="508"/>
      <point x="452.578" y="492"/>
      <point x="493.351" y="458"/>
      <point x="510.023" y="400"/>
      <point x="501.095" y="358" type="qcurve" smooth="yes"/>
      <point x="497.057" y="339"/>
      <point x="488.98" y="301"/>
      <point x="480.902" y="263"/>
      <point x="472.825" y="225"/>
      <point x="464.748" y="187"/>
      <point x="460.709" y="168" type="qcurve" smooth="yes"/>
      <point x="445.193" y="95"/>
      <point x="368.401" y="16"/>
      <point x="260.449" y="-12"/>
      <point x="195.874" y="-10" type="qcurve"/>
      <point x="177.874" y="-10"/>
      <point x="125.725" y="-6"/>
      <point x="74.3623" y="-3"/>
      <point x="41" y="0"/>
      <point x="41" y="0" type="qcurve"/>
      <point x="189.364" y="698" type="line"/>
      <point x="245.364" y="698" type="line"/>
    </contour>
    <contour>
      <point x="106.778" y="46" type="qcurve"/>
      <point x="106.778" y="46"/>
      <point x="121.565" y="45"/>
      <point x="147.927" y="42"/>
      <point x="187.502" y="40"/>
      <point x="211.077" y="38" type="qcurve"/>
      <point x="260.652" y="36"/>
      <point x="329.053" y="52"/>
      <point x="373.28" y="86"/>
      <point x="399.545" y="139"/>
      <point x="407.197" y="175" type="qcurve" smooth="yes"/>
      <point x="408.898" y="183"/>
      <point x="419.526" y="233"/>
      <point x="432.704" y="295"/>
      <point x="443.545" y="346"/>
      <point x="445.245" y="354" type="qcurve" smooth="yes"/>
      <point x="455.023" y="400"/>
      <point x="426.8" y="446"/>
      <point x="379.989" y="461"/>
      <point x="360.989" y="461" type="qcurve" smooth="yes"/>
      <point x="312.989" y="461"/>
      <point x="231.312" y="439"/>
      <point x="186.699" y="422" type="qcurve"/>
      <point x="180.96" y="395"/>
      <point x="169.694" y="342"/>
      <point x="158.216" y="288"/>
      <point x="146.738" y="234"/>
      <point x="135.473" y="181"/>
      <point x="123.995" y="127"/>
      <point x="112.517" y="73"/>
    </contour>
  </outline>
</glyph>
<glyph name="f" format="1">
  <advance width="248"/>
  <unicode hex="0066"/>
  <outline>
    <contour>
      <point x="353.437" y="656" type="line"/>
      <point x="346.65" y="657"/>
      <point x="333.862" y="658"/>
      <point x="327.862" y="658" type="qcurve" smooth="yes"/>
      <point x="297.862" y="658"/>
      <point x="250.548" y="633"/>
      <point x="219.346" y="585"/>
      <point x="211.481" y="548" type="qcurve" smooth="yes"/>
      <point x="200.853" y="498" type="line"/>
      <point x="314.853" y="498" type="line"/>
      <point x="280.8" y="446" type="line"/>
      <point x="189.8" y="446" type="line"/>
      <point x="95" y="0" type="line"/>
      <point x="39" y="0" type="line"/>
      <point x="155.481" y="548" type="line" smooth="yes"/>
      <point x="168.872" y="611"/>
      <point x="230.751" y="681"/>
      <point x="304.703" y="709"/>
      <point x="337.49" y="708" type="qcurve"/>
      <point x="347.49" y="708"/>
      <point x="365.277" y="707"/>
      <point x="372.852" y="705" type="qcurve"/>
    </contour>
  </outline>
</glyph>
<glyph name="g" format="1">
  <advance width="440"/>
  <unicode hex="0067"/>
    <anchor name="top" x="335.843" y="545"/>
  <outline>
    <contour>
      <point x="386.394" y="-64" type="line" smooth="yes"/>
      <point x="373.638" y="-124"/>
      <point x="308.181" y="-192"/>
      <point x="247.354" y="-210" type="qcurve"/>
      <point x="240.496" y="-167" type="line"/>
      <point x="264.409" y="-158"/>
      <point x="300.362" y="-130"/>
      <point x="324.079" y="-89"/>
      <point x="329.606" y="-63" type="qcurve" smooth="yes"/>
      <point x="355.969" y="61" type="line"/>
      <point x="340.717" y="41"/>
      <point x="289.488" y="7"/>
      <point x="229.449" y="-12"/>
      <point x="199.449" y="-12" type="qcurve" smooth="yes"/>
      <point x="115.449" y="-12"/>
      <point x="48.8584" y="84"/>
      <point x="68.205" y="175" type="qcurve" smooth="yes"/>
      <point x="104.347" y="345" type="line" smooth="yes"/>
      <point x="121.142" y="424"/>
      <point x="227.851" y="512"/>
      <point x="309.001" y="508" type="qcurve" smooth="yes"/>
      <point x="332.788" y="507"/>
      <point x="379.024" y="494"/>
      <point x="420.709" y="469"/>
      <point x="438.883" y="451" type="qcurve"/>
      <point x="448.875" y="498" type="line"/>
      <point x="505.875" y="498" type="line"/>
    </contour>
    <contour>
      <point x="426.339" y="392" type="line"/>
      <point x="416.804" y="413"/>
      <point x="377.544" y="440"/>
      <point x="331.946" y="456"/>
      <point x="310.371" y="458" type="qcurve" smooth="yes"/>
      <point x="280.009" y="461"/>
      <point x="217.544" y="440"/>
      <point x="169.276" y="387"/>
      <point x="159.709" y="342" type="qcurve" smooth="yes"/>
      <point x="122.292" y="166" type="line" smooth="yes"/>
      <point x="108.898" y="103"/>
      <point x="156.504" y="40"/>
      <point x="213.504" y="40" type="qcurve" smooth="yes"/>
      <point x="251.504" y="40"/>
      <point x="321.095" y="71"/>
      <point x="370.851" y="131"/>
      <point x="379.78" y="173" type="qcurve" smooth="yes"/>
    </contour>
    <contour>
      <point x="335.843" y="545" type="move" name="top"/>
    </contour>
  </outline>
</glyph>
<glyph name="n" format="1">
  <advance width="442"/>
  <unicode hex="006E"/>
    <anchor name="top" x="336.843" y="545"/>
    <anchor name="bottom" x="221" y="0"/>
  <outline>
    <contour>
      <point x="423.497" y="341" type="line" smooth="yes"/>
      <point x="433.064" y="386"/>
      <point x="405.906" y="437"/>
      <point x="350.371" y="458"/>
      <point x="318.371" y="458" type="qcurve" smooth="yes"/>
      <point x="284.371" y="458"/>
      <point x="218.757" y="441"/>
      <point x="184.142" y="424" type="qcurve"/>
      <point x="94" y="0" type="line"/>
      <point x="38" y="0" type="line"/>
      <point x="144.087" y="499" type="line"/>
      <point x="200.087" y="499" type="line"/>
      <point x="192.859" y="465" type="line"/>
      <point x="226.111" y="485"/>
      <point x="303.001" y="508"/>
      <point x="340.001" y="508" type="qcurve" smooth="yes"/>
      <point x="381.001" y="508"/>
      <point x="441.324" y="486"/>
      <point x="477.394" y="444"/>
      <point x="487.426" y="383"/>
      <point x="479.134" y="344" type="qcurve" smooth="yes"/>
      <point x="406" y="0" type="line"/>
      <point x="351" y="0" type="line"/>
    </contour>
    <contour>
      <point x="336.843" y="545" type="move" name="top"/>
    </contour>
    <contour>
      <point x="221" y="0" type="move" name="bottom"/>
    </contour>
  </outline>
</glyph>
<glyph name="o" format="1">
  <advance width="429"/>
  <unicode hex="006F"/>
    <anchor name="top" x="329.843" y="545"/>
    <anchor name="tonos" x="329.843" y="545"/>
  <outline>
    <contour>
      <point x="437.11" y="184" type="line" smooth="yes"/>
      <point x="419.043" y="99"/>
      <point x="306.874" y="-10"/>
      <point x="214.874" y="-10" type="qcurve" smooth="yes"/>
      <point x="152.874" y="-10"/>
      <point x="79.9274" y="42"/>
      <point x="56.6324" y="130"/>
      <point x="68.1104" y="184" type="qcurve" smooth="yes"/>
      <point x="95.9553" y="315" type="line" smooth="yes"/>
      <point x="116.148" y="410"/>
      <point x="234.404" y="510"/>
      <point x="323.404" y="510" type="qcurve" smooth="yes"/>
      <point x="412.404" y="510"/>
      <point x="484.298" y="406"/>
      <point x="464.955" y="315" type="qcurve" smooth="yes"/>
    </contour>
    <contour>
      <point x="408.955" y="315" type="line" smooth="yes"/>
      <point x="424.259" y="387"/>
      <point x="379.776" y="460"/>
      <point x="314.776" y="460" type="qcurve" smooth="yes"/>
      <point x="248.776" y="460"/>
      <point x="167.259" y="387"/>
      <point x="151.955" y="315" type="qcurve" smooth="yes"/>
      <point x="121.985" y="174" type="line" smooth="yes"/>
      <point x="113.483" y="134"/>
      <point x="132.729" y="74"/>
      <point x="185.502" y="40"/>
      <point x="225.502" y="40" type="qcurve" smooth="yes"/>
      <point x="267.502" y="40"/>
      <point x="329.517" y="73"/>
      <point x="370.27" y="133"/>
      <point x="378.985" y="174" type="qcurve" smooth="yes"/>
    </contour>
    <contour>
      <point x="329.843" y="545" type="move" name="top"/>
    </contour>
    <contour>
      <point x="329.843" y="545" type="move" name="tonos"/>
    </contour>
  </outline>
</glyph>
<glyph name="bar" format="1">
  <advance width="140"/>
  <unicode hex="007C"/>
  <outline>
    <contour>
      <point x="17.9811" y="-113" type="line"/>
      <point x="215.234" y="815" type="line"/>
      <point x="270.234" y="815" type="line"/>
      <point x="72.9811" y="-113" type="line"/>
    </contour>
  </outline>
</glyph>
<glyph name="yen" format="1">
  <advance width="514"/>
  <unicode hex="00A5"/>
  <outline>
    <contour>
      <point x="139.086" y="198" type="line"/>
      <point x="150.777" y="253" type="line"/>
      <point x="282.777" y="253" type="line"/>
      <point x="301.057" y="339" type="line"/>
      <point x="169.364" y="698" type="line"/>
      <point x="233.364" y="698" type="line"/>
      <point x="342.085" y="405" type="line"/>
      <point x="578.364" y="698" type="line"/>
      <point x="640.364" y="698" type="line"/>
      <point x="357.482" y="341" type="line"/>
      <point x="338.777" y="253" type="line"/>
      <point x="469.777" y="253" type="line"/>
      <point x="458.086" y="198" type="line"/>
      <point x="327.086" y="198" type="line"/>
      <point x="316.458" y="148" type="line"/>
      <point x="447.458" y="148" type="line"/>
      <point x="435.98" y="94" type="line"/>
      <point x="304.98" y="94" type="line"/>
      <point x="285" y="0" type="line"/>
      <point x="229" y="0" type="line"/>
      <point x="248.98" y="94" type="line"/>
      <point x="116.98" y="94" type="line"/>
      <point x="128.458" y="148" type="line"/>
      <point x="260.458" y="148" type="line"/>
      <point x="271.086" y="198" type="line"/>
    </contour>
  </outline>
</glyph>
<glyph name="dieresis" format="1">
  <advance width="266"/>
  <unicode hex="00A8"/>
  <outline>
    <contour>
      <point x="211.292" y="740" type="qcurve" smooth="yes"/>
      <point x="225.292" y="740"/>
      <point x="241.041" y="720"/>
      <point x="238.065" y="706" type="qcurve" smooth="yes"/>
      <point x="235.089" y="692"/>
      <point x="211.051" y="673"/>
      <point x="197.051" y="673" type="qcurve" smooth="yes"/>
      <point x="184.051" y="673"/>
      <point x="168.089" y="692"/>
      <point x="171.065" y="706" type="qcurve" smooth="yes"/>
      <point x="174.041" y="720"/>
      <point x="198.292" y="740"/>
    </contour>
    <contour>
      <point x="369.292" y="740" type="qcurve" smooth="yes"/>
      <point x="383.292" y="740"/>
      <point x="398.041" y="720"/>
      <point x="395.065" y="706" type="qcurve" smooth="yes"/>
      <point x="392.089" y="692"/>
      <point x="369.051" y="673"/>
      <point x="355.051" y="673" type="qcurve" smooth="yes"/>
      <point x="341.051" y="673"/>
      <point x="326.089" y="692"/>
      <point x="329.065" y="706" type="qcurve" smooth="yes"/>
      <point x="332.041" y="720"/>
      <point x="355.292" y="740"/>
    </contour>
  </outline>
</glyph>
<glyph name="copyright" format="1">
  <advance width="694"/>
  <unicode hex="00A9"/>
  <outline>
    <contour>
      <point x="701.748" y="187" type="line" smooth="yes"/>
      <point x="683.681" y="102"/>
      <point x="578.449" y="-12"/>
      <point x="423.546" y="-68"/>
      <point x="331.334" y="-69" type="qcurve"/>
      <point x="240.546" y="-68"/>
      <point x="109.449" y="-12"/>
      <point x="52.6807" y="102"/>
      <point x="70.7481" y="187" type="qcurve" smooth="yes"/>
      <point x="100.293" y="326" type="line" smooth="yes"/>
      <point x="118.361" y="411"/>
      <point x="223.38" y="524"/>
      <point x="378.708" y="582"/>
      <point x="469.708" y="582" type="qcurve" smooth="yes"/>
      <point x="561.708" y="582"/>
      <point x="692.38" y="524"/>
      <point x="749.361" y="411"/>
      <point x="731.293" y="326" type="qcurve" smooth="yes"/>
    </contour>
    <contour>
      <point x="666.98" y="301" type="line" smooth="yes"/>
      <point x="684.409" y="383"/>
      <point x="649.452" y="482"/>
      <point x="546.017" y="527"/>
      <point x="458.23" y="528" type="qcurve"/>
      <point x="371.017" y="527"/>
      <point x="247.452" y="482"/>
      <point x="171.409" y="383"/>
      <point x="153.98" y="301" type="qcurve" smooth="yes"/>
      <point x="134.849" y="211" type="line" smooth="yes"/>
      <point x="117.632" y="130"/>
      <point x="151.589" y="31"/>
      <point x="256.024" y="-14"/>
      <point x="342.812" y="-15" type="qcurve"/>
      <point x="431.024" y="-14"/>
      <point x="553.589" y="31"/>
      <point x="630.632" y="130"/>
      <point x="647.849" y="211" type="qcurve" smooth="yes"/>
    </contour>
    <contour>
      <point x="566.409" y="383" type="line"/>
      <point x="549.897" y="390"/>
      <point x="514.81" y="399"/>
      <point x="479.873" y="404"/>
      <point x="462.873" y="404" type="qcurve" smooth="yes"/>
      <point x="429.873" y="404"/>
      <point x="375.897" y="390"/>
      <point x="353.921" y="376" type="qcurve" smooth="yes"/>
      <point x="325.095" y="358"/>
      <point x="285.917" y="296"/>
      <point x="276.989" y="254" type="qcurve" smooth="yes"/>
      <point x="268.7" y="215"/>
      <point x="275.309" y="152"/>
      <point x="296.27" y="133" type="qcurve" smooth="yes"/>
      <point x="310.719" y="121"/>
      <point x="357.956" y="108"/>
      <point x="391.956" y="108" type="qcurve" smooth="yes"/>
      <point x="406.956" y="108"/>
      <point x="440.806" y="112"/>
      <point x="478.294" y="119"/>
      <point x="520.632" y="130"/>
      <point x="543.12" y="137" type="qcurve"/>
      <point x="545.13" y="90" type="line"/>
      <point x="499.729" y="74"/>
      <point x="415.328" y="58"/>
      <point x="376.328" y="58" type="qcurve" smooth="yes"/>
      <point x="360.328" y="58"/>
      <point x="297.604" y="64"/>
      <point x="264.43" y="82" type="qcurve"/>
      <point x="232.893" y="103"/>
      <point x="205.536" y="186"/>
      <point x="218.927" y="249" type="qcurve" smooth="yes"/>
      <point x="232.955" y="315"/>
      <point x="295.448" y="402"/>
      <point x="343.974" y="428" type="qcurve" smooth="yes"/>
      <point x="368.95" y="442"/>
      <point x="425.288" y="453"/>
      <point x="455.288" y="453" type="qcurve" smooth="yes"/>
      <point x="493.288" y="453"/>
      <point x="562.887" y="437"/>
      <point x="590.274" y="420" type="qcurve"/>
    </contour>
  </outline>
</glyph>
<glyph name="registered" format="1">
  <advance width="694"/>
  <unicode hex="00AE"/>
  <outline>
    <contour>
      <point x="701.748" y="187" type="line" smooth="yes"/>
      <point x="683.681" y="102"/>
      <point x="578.449" y="-12"/>
      <point x="423.546" y="-68"/>
      <point x="331.334" y="-69" type="qcurve"/>
      <point x="240.546" y="-68"/>
      <point x="109.449" y="-12"/>
      <point x="52.6807" y="102"/>
      <point x="70.7481" y="187" type="qcurve" smooth="yes"/>
      <point x="100.293" y="326" type="line" smooth="yes"/>
      <point x="118.361" y="411"/>
      <point x="223.38" y="524"/>
      <point x="378.708" y="582"/>
      <point x="469.708" y="582" type="qcurve" smooth="yes"/>
      <point x="561.708" y="582"/>
      <point x="692.38" y="524"/>
      <point x="749.361" y="411"/>
      <point x="731.293" y="326" type="qcurve" smooth="yes"/>
    </contour>
    <contour>
      <point x="664.98" y="301" type="line" smooth="yes"/>
      <point x="682.409" y="383"/>
      <point x="648.452" y="482"/>
      <point x="546.017" y="527"/>
      <point x="458.23" y="528" type="qcurve"/>
      <point x="371.017" y="527"/>
      <point x="247.452" y="482"/>
      <point x="171.409" y="383"/>
      <point x="153.98" y="301" type="qcurve" smooth="yes"/>
      <point x="134.849" y="211" type="line" smooth="yes"/>
      <point x="117.632" y="130"/>
      <point x="151.589" y="31"/>
      <point x="256.024" y="-14"/>
      <point x="342.812" y="-15" type="qcurve"/>
      <point x="431.024" y="-14"/>
      <point x="552.589" y="31"/>
      <point x="628.632" y="130"/>
      <point x="645.849" y="211" type="qcurve" smooth="yes"/>
    </contour>
    <contour>
      <point x="477.95" y="442" type="line" smooth="yes"/>
      <point x="497.95" y="442"/>
      <point x="540.25" y="434"/>
      <point x="574.723" y="408"/>
      <point x="588.67" y="356"/>
      <point x="580.105" y="311" type="qcurve" smooth="yes"/>
      <point x="568.139" y="250"/>
      <point x="510.236" y="194"/>
      <point x="479.323" y="185" type="qcurve"/>
      <point x="515.541" y="59" type="line"/>
      <point x="451.541" y="59" type="line"/>
      <point x="419.41" y="176" type="line"/>
      <point x="270.41" y="176" type="line"/>
      <point x="245.541" y="59" type="line"/>
      <point x="192.541" y="59" type="line"/>
      <point x="273.95" y="442" type="line"/>
    </contour>
    <contour>
      <point x="436.313" y="232" type="line" smooth="yes"/>
      <point x="474.313" y="232"/>
      <point x="519.39" y="270"/>
      <point x="527.893" y="310" type="qcurve" smooth="yes"/>
      <point x="536.607" y="351"/>
      <point x="509.472" y="388"/>
      <point x="469.472" y="388" type="qcurve" smooth="yes"/>
      <point x="315.472" y="388" type="line"/>
      <point x="282.313" y="232" type="line"/>
    </contour>
  </outline>
</glyph>
<glyph name="acute" format="1">
  <advance width="266"/>
  <unicode hex="00B4"/>
  <outline>
    <contour>
      <point x="340.964" y="682" type="qcurve"/>
      <point x="271.172" y="603" type="line"/>
      <point x="236.172" y="603" type="line"/>
      <point x="296.915" y="710" type="line" smooth="yes"/>
      <point x="304.891" y="724"/>
      <point x="332.654" y="737"/>
      <point x="343.954" y="729" type="qcurve"/>
      <point x="356.466" y="722"/>
      <point x="353.302" y="693"/>
    </contour>
  </outline>
</glyph>
<glyph name="paragraph" format="1">
  <advance width="620"/>
  <unicode hex="00B6"/>
  <outline>
    <contour>
      <point x="279.289" y="246" type="line" smooth="yes"/>
      <point x="230.289" y="246"/>
      <point x="161.603" y="271"/>
      <point x="124.081" y="325"/>
      <point x="117.573" y="412"/>
      <point x="130.752" y="474" type="qcurve" smooth="yes"/>
      <point x="144.355" y="538"/>
      <point x="188.848" y="625"/>
      <point x="249.901" y="677"/>
      <point x="327.79" y="700"/>
      <point x="375.79" y="700" type="qcurve" smooth="yes"/>
      <point x="725.79" y="700" type="line"/>
      <point x="577.213" y="1" type="line"/>
      <point x="521.213" y="1" type="line"/>
      <point x="658.949" y="649" type="line"/>
      <point x="600.162" y="650" type="line"/>
      <point x="462.213" y="1" type="line"/>
      <point x="407.213" y="1" type="line"/>
      <point x="459.289" y="246" type="line"/>
    </contour>
    <contour>
      <point x="360.524" y="647" type="line" smooth="yes"/>
      <point x="321.524" y="647"/>
      <point x="253.573" y="619"/>
      <point x="201.843" y="545"/>
      <point x="186.752" y="474" type="qcurve" smooth="yes"/>
      <point x="170.598" y="398"/>
      <point x="191.868" y="324"/>
      <point x="248.767" y="300"/>
      <point x="286.767" y="300" type="qcurve" smooth="yes"/>
      <point x="470.767" y="300" type="line"/>
      <point x="544.524" y="647" type="line"/>
    </contour>
  </outline>
</glyph>
<glyph name="cedilla" format="1">
  <advance width="266"/>
  <unicode hex="00B8"/>
  <outline>
    <contour>
      <point x="165" y="0" type="line"/>
      <point x="129.646" y="-44" type="line"/>
      <point x="135.858" y="-43"/>
      <point x="148.858" y="-43"/>
      <point x="156.071" y="-42" type="qcurve" smooth="yes"/>
      <point x="189.921" y="-38"/>
      <point x="231.181" y="-65"/>
      <point x="246.614" y="-110"/>
      <point x="241.299" y="-135" type="qcurve"/>
      <point x="234.433" y="-172"/>
      <point x="164.464" y="-233"/>
      <point x="105.464" y="-233" type="qcurve" smooth="yes"/>
      <point x="82.4642" y="-233"/>
      <point x="37.7398" y="-227"/>
      <point x="9.0154" y="-221"/>
      <point x="7.0154" y="-221" type="qcurve"/>
      <point x="13.9918" y="-207"/>
      <point x="18.1178" y="-197"/>
      <point x="22.2438" y="-187"/>
      <point x="29.2202" y="-173" type="qcurve"/>
      <point x="42.795" y="-175"/>
      <point x="69.5194" y="-181"/>
      <point x="96.8816" y="-184"/>
      <point x="109.882" y="-184" type="qcurve" smooth="yes"/>
      <point x="129.882" y="-184"/>
      <point x="163.582" y="-176"/>
      <point x="187.472" y="-153"/>
      <point x="191.724" y="-133" type="qcurve" smooth="yes"/>
      <point x="197.252" y="-107"/>
      <point x="168.653" y="-91"/>
      <point x="142.653" y="-91" type="qcurve"/>
      <point x="126.441" y="-92"/>
      <point x="87.5904" y="-96"/>
      <point x="67.1652" y="-98" type="qcurve"/>
      <point x="60.3306" y="-69" type="line"/>
      <point x="115" y="0" type="line"/>
    </contour>
  </outline>
</glyph>
<glyph name="IJ" format="1">
  <advance width="549"/>
  <unicode hex="0132"/>
  <outline>
    <contour>
      <point x="653.365" y="698" type="line"/>
      <point x="544.323" y="185" type="line" smooth="yes"/>
      <point x="522.855" y="84"/>
      <point x="450.652" y="36" type="qcurve" smooth="yes"/>
      <point x="380.662" y="-11"/>
      <point x="294.662" y="-11" type="qcurve" smooth="yes"/>
      <point x="251.662" y="-11"/>
      <point x="182.551" y="12"/>
      <point x="155.652" y="36" type="qcurve" smooth="yes"/>
      <point x="130.753" y="60"/>
      <point x="115.695" y="135"/>
      <point x="126.323" y="185" type="qcurve" smooth="yes"/>
      <point x="134.188" y="222" type="line"/>
      <point x="189.188" y="222" type="line"/>
      <point x="181.536" y="186" type="line" smooth="yes"/>
      <point x="173.458" y="148"/>
      <point x="186.555" y="92"/>
      <point x="205.729" y="74" type="qcurve" smooth="yes"/>
      <point x="222.328" y="58"/>
      <point x="273.927" y="42"/>
      <point x="304.927" y="42" type="qcurve" smooth="yes"/>
      <point x="340.927" y="42"/>
      <point x="403.966" y="61"/>
      <point x="428.217" y="81" type="qcurve" smooth="yes"/>
      <point x="450.256" y="100"/>
      <point x="482.309" y="152"/>
      <point x="489.536" y="186" type="qcurve" smooth="yes"/>
      <point x="587.524" y="647" type="line"/>
      <point x="519.949" y="649" type="line"/>
      <point x="530.364" y="698" type="line"/>
    </contour>
    <contour>
      <point x="290.364" y="698" type="line"/>
      <point x="200.24" y="274" type="line"/>
      <point x="145.24" y="274" type="line"/>
      <point x="224.524" y="647" type="line"/>
      <point x="156.949" y="649" type="line"/>
      <point x="167.364" y="698" type="line"/>
    </contour>
  </outline>
</glyph>
<glyph name="lslash" format="1">
  <advance width="353"/>
  <unicode hex="0142"/>
  <outline>
    <contour>
      <point x="232.998" y="414" type="line"/>
      <point x="293.364" y="698" type="line"/>
      <point x="349.364" y="698" type="line"/>
      <point x="294.312" y="439" type="line"/>
      <point x="410.515" y="487" type="line"/>
      <point x="423.1" y="438" type="line"/>
      <point x="281.771" y="380" type="line"/>
      <point x="201" y="0" type="line"/>
      <point x="145" y="0" type="line"/>
      <point x="220.245" y="354" type="line"/>
      <point x="104.255" y="307" type="line"/>
      <point x="92.6701" y="356" type="line"/>
    </contour>
  </outline>
</glyph>
<glyph name="Eng" format="1">
  <advance width="576"/>
  <unicode hex="014A"/>
  <outline>
    <contour>
      <point x="519.821" y="-62" type="line" smooth="yes"/>
      <point x="512.595" y="-96"/>
      <point x="486.967" y="-146"/>
      <point x="465.928" y="-165" type="qcurve" smooth="yes"/>
      <point x="449.952" y="-179"/>
      <point x="409.489" y="-200"/>
      <point x="382.788" y="-208" type="qcurve"/>
      <point x="376.928" y="-165" type="line"/>
      <point x="393.203" y="-159"/>
      <point x="420.03" y="-141"/>
      <point x="430.368" y="-130" type="qcurve" smooth="yes"/>
      <point x="443.343" y="-116"/>
      <point x="459.57" y="-82"/>
      <point x="463.821" y="-62" type="qcurve" smooth="yes"/>
      <point x="477.213" y="1" type="line"/>
      <point x="223.471" y="595" type="line"/>
      <point x="97" y="0" type="line"/>
      <point x="41" y="0" type="line"/>
      <point x="189.364" y="698" type="line"/>
      <point x="246.364" y="698" type="line"/>
      <point x="498.893" y="103" type="line"/>
      <point x="625.364" y="698" type="line"/>
      <point x="681.364" y="698" type="line"/>
    </contour>
  </outline>
</glyph>
<glyph name="eng" format="1">
  <advance width="442"/>
  <unicode hex="014B"/>
  <outline>
    <contour>
      <point x="396.435" y="-45" type="line" smooth="yes"/>
      <point x="389.208" y="-79"/>
      <point x="363.58" y="-129"/>
      <point x="342.754" y="-147" type="qcurve" smooth="yes"/>
      <point x="326.778" y="-161"/>
      <point x="287.315" y="-182"/>
      <point x="260.614" y="-190" type="qcurve"/>
      <point x="252.754" y="-147" type="line"/>
      <point x="268.817" y="-142"/>
      <point x="295.43" y="-125"/>
      <point x="305.981" y="-113" type="qcurve" smooth="yes"/>
      <point x="318.744" y="-100"/>
      <point x="335.971" y="-66"/>
      <point x="340.648" y="-44" type="qcurve" smooth="yes"/>
      <point x="422.694" y="342" type="line" smooth="yes"/>
      <point x="432.259" y="387"/>
      <point x="405.1" y="438"/>
      <point x="350.351" y="458"/>
      <point x="318.351" y="458" type="qcurve" smooth="yes"/>
      <point x="284.351" y="458"/>
      <point x="216.737" y="441"/>
      <point x="184.124" y="424" type="qcurve"/>
      <point x="94" y="0" type="line"/>
      <point x="38" y="0" type="line"/>
      <point x="143.853" y="498" type="line"/>
      <point x="199.853" y="498" type="line"/>
      <point x="192.839" y="465" type="line"/>
      <point x="226.09" y="485"/>
      <point x="302.979" y="508"/>
      <point x="339.979" y="508" type="qcurve" smooth="yes"/>
      <point x="380.979" y="508"/>
      <point x="441.515" y="487"/>
      <point x="477.588" y="445"/>
      <point x="487.622" y="384"/>
      <point x="479.332" y="345" type="qcurve" smooth="yes"/>
    </contour>
  </outline>
</glyph>
<glyph name="tbar" format="1">
  <advance width="286"/>
  <unicode hex="0167"/>
  <outline>
    <contour>
      <point x="319.192" y="302" type="line"/>
      <point x="89.1921" y="302" type="line"/>
      <point x="100.458" y="355" type="line"/>
      <point x="330.458" y="355" type="line"/>
    </contour>
    <contour>
      <point x="164.057" y="132" type="line" smooth="yes"/>
      <point x="155.555" y="92"/>
      <point x="177.715" y="41"/>
      <point x="208.377" y="30" type="qcurve"/>
      <point x="182.237" y="-13" type="line"/>
      <point x="130.638" y="3"/>
      <point x="95.5166" y="73"/>
      <point x="108.057" y="132" type="qcurve" smooth="yes"/>
      <point x="228.364" y="698" type="line"/>
      <point x="284.364" y="698" type="line"/>
      <point x="242.066" y="499" type="line"/>
      <point x="362.066" y="499" type="line"/>
      <point x="327.013" y="447" type="line"/>
      <point x="231.013" y="447" type="line"/>
    </contour>
  </outline>
</glyph>
<glyph name="dotlessj" format="1">
  <advance width="187"/>
  <unicode hex="0237"/>
    <anchor name="top" x="249.229" y="735"/>
  <outline>
    <contour>
      <point x="133.612" y="-63" type="line" smooth="yes"/>
      <point x="126.387" y="-97"/>
      <point x="101.762" y="-147"/>
      <point x="80.725" y="-166" type="qcurve" smooth="yes"/>
      <point x="64.75" y="-180"/>
      <point x="24.2875" y="-201"/>
      <point x="-2.4125" y="-209" type="qcurve"/>
      <point x="-9.275" y="-166" type="line"/>
      <point x="7" y="-160"/>
      <point x="33.825" y="-142"/>
      <point x="44.1625" y="-131" type="qcurve" smooth="yes"/>
      <point x="68.6875" y="-105"/>
      <point x="77.825" y="-62" type="qcurve" smooth="yes"/>
      <point x="185.988" y="447" type="line"/>
      <point x="122.988" y="447" type="line"/>
      <point x="134.038" y="499" type="line"/>
      <point x="253.038" y="499" type="line"/>
    </contour>
    <contour>
      <point x="249.229" y="735" type="move" name="top"/>
    </contour>
  </outline>
</glyph>
<glyph name="caron" format="1">
  <advance width="266"/>
  <unicode hex="02C7"/>
  <outline>
    <contour>
      <point x="414.978" y="715" type="line"/>
      <point x="255.771" y="587" type="line"/>
      <point x="154.553" y="713" type="line"/>
      <point x="201.63" y="751" type="line"/>
      <point x="271.925" y="663" type="line"/>
      <point x="383.843" y="752" type="line"/>
    </contour>
  </outline>
</glyph>
<glyph name="tonos" format="1">
  <advance width="266"/>
  <unicode hex="0384"/>
  <outline>
    <contour>
      <point x="346.964" y="682" type="qcurve"/>
      <point x="277.172" y="603" type="line"/>
      <point x="242.172" y="603" type="line"/>
      <point x="302.915" y="710" type="line" smooth="yes"/>
      <point x="310.891" y="724"/>
      <point x="338.654" y="737"/>
      <point x="349.954" y="729" type="qcurve"/>
      <point x="362.466" y="722"/>
      <point x="359.302" y="693"/>
    </contour>
  </outline>
</glyph>
<glyph name="Deltagreek" format="1">
  <advance width="545"/>
  <unicode hex="0394"/>
  <outline>
    <contour>
      <point x="525" y="0" type="line"/>
      <point x="21" y="0" type="line"/>
      <point x="541.729" y="698" type="line"/>
      <point x="594.729" y="698" type="line"/>
    </contour>
    <contour>
      <point x="116.256" y="50" type="line"/>
      <point x="470.256" y="50" type="line"/>
      <point x="531.169" y="612" type="line"/>
    </contour>
  </outline>
</glyph>
<glyph name="Omegagreek" format="1">
  <advance width="580"/>
  <unicode hex="03A9"/>
    <anchor name="tonos" x="244.79" y="700"/>
  <outline>
    <contour>
      <point x="574.225" y="194" type="line" smooth="yes"/>
      <point x="563.813" y="145"/>
      <point x="513.3" y="72"/>
      <point x="470.625" y="50" type="qcurve"/>
      <point x="540.625" y="50" type="line"/>
      <point x="545.787" y="-1" type="line"/>
      <point x="317.787" y="-1" type="line"/>
      <point x="328.625" y="50" type="line"/>
      <point x="361.625" y="50"/>
      <point x="423.3" y="72"/>
      <point x="439" y="80" type="qcurve" smooth="yes"/>
      <point x="469.613" y="97"/>
      <point x="510.725" y="154"/>
      <point x="519.225" y="194" type="qcurve" smooth="yes"/>
      <point x="586.375" y="510" type="line" smooth="yes"/>
      <point x="600.4" y="576"/>
      <point x="543.55" y="652"/>
      <point x="484.55" y="652" type="qcurve" smooth="yes"/>
      <point x="372.55" y="652" type="line" smooth="yes"/>
      <point x="313.55" y="652"/>
      <point x="225.4" y="576"/>
      <point x="211.375" y="510" type="qcurve" smooth="yes"/>
      <point x="144.225" y="194" type="line" smooth="yes"/>
      <point x="137.85" y="164"/>
      <point x="143.65" y="116"/>
      <point x="155.825" y="98" type="qcurve" smooth="yes"/>
      <point x="165.425" y="82"/>
      <point x="226.625" y="50"/>
      <point x="271.625" y="50" type="qcurve"/>
      <point x="260.787" y="-1" type="line"/>
      <point x="32.7875" y="-1" type="line"/>
      <point x="61.625" y="50" type="line"/>
      <point x="125.625" y="50" type="line"/>
      <point x="106.6" y="64"/>
      <point x="84.525" y="106"/>
      <point x="81.2125" y="161"/>
      <point x="88.225" y="194" type="qcurve" smooth="yes"/>
      <point x="153.463" y="501" type="line" smooth="yes"/>
      <point x="173.013" y="593"/>
      <point x="289.6" y="704"/>
      <point x="383.6" y="704" type="qcurve" smooth="yes"/>
      <point x="495.6" y="704" type="line" smooth="yes"/>
      <point x="588.6" y="704"/>
      <point x="659.013" y="593"/>
      <point x="639.463" y="501" type="qcurve" smooth="yes"/>
    </contour>
    <contour>
      <point x="244.79" y="700" type="move" name="tonos"/>
    </contour>
  </outline>
</glyph>
<glyph name="delta" format="1">
  <advance width="431"/>
  <unicode hex="03B4"/>
  <outline>
    <contour>
      <point x="379.374" y="651" type="line" smooth="yes"/>
      <point x="361.374" y="651"/>
      <point x="331.611" y="638"/>
      <point x="310.51" y="614"/>
      <point x="307.109" y="598" type="qcurve" smooth="yes"/>
      <point x="302.858" y="578"/>
      <point x="311.756" y="554"/>
      <point x="330.718" y="535"/>
      <point x="341.38" y="524" type="qcurve" smooth="yes"/>
      <point x="343.955" y="522"/>
      <point x="359.766" y="507"/>
      <point x="380.365" y="491"/>
      <point x="387.09" y="485" type="qcurve" smooth="yes"/>
      <point x="406.689" y="469"/>
      <point x="439.25" y="434"/>
      <point x="453.448" y="402" type="qcurve" smooth="yes"/>
      <point x="464.921" y="376"/>
      <point x="466.105" y="311"/>
      <point x="459.303" y="279" type="qcurve" smooth="yes"/>
      <point x="438.898" y="183" type="line" smooth="yes"/>
      <point x="418.28" y="86"/>
      <point x="304.662" y="-11"/>
      <point x="212.662" y="-11" type="qcurve" smooth="yes"/>
      <point x="117.662" y="-11"/>
      <point x="47.5552" y="92"/>
      <point x="66.8978" y="183" type="qcurve" smooth="yes"/>
      <point x="93.4674" y="308" type="line" smooth="yes"/>
      <point x="103.883" y="357"/>
      <point x="148.824" y="432"/>
      <point x="179.138" y="457" type="qcurve" smooth="yes"/>
      <point x="198.327" y="472"/>
      <point x="240.153" y="490"/>
      <point x="274.278" y="500"/>
      <point x="280.703" y="502" type="qcurve"/>
      <point x="273.404" y="510" type="line" smooth="yes"/>
      <point x="255.293" y="533"/>
      <point x="247.858" y="578"/>
      <point x="252.896" y="597" type="qcurve" smooth="yes"/>
      <point x="260.848" y="625"/>
      <point x="299.051" y="673"/>
      <point x="356.79" y="700"/>
      <point x="392.364" y="698" type="qcurve"/>
      <point x="504.364" y="698" type="line"/>
      <point x="472.374" y="651" type="line"/>
    </contour>
    <contour>
      <point x="406.492" y="294" type="line" smooth="yes"/>
      <point x="413.506" y="327"/>
      <point x="401.622" y="384"/>
      <point x="371.399" y="430"/>
      <point x="349.013" y="447" type="qcurve" smooth="yes"/>
      <point x="343.863" y="451"/>
      <point x="332.563" y="459"/>
      <point x="326.414" y="463" type="qcurve"/>
      <point x="326.414" y="463"/>
      <point x="289.563" y="459"/>
      <point x="235.737" y="441"/>
      <point x="208.849" y="418" type="qcurve" smooth="yes"/>
      <point x="187.023" y="400"/>
      <point x="157.119" y="344"/>
      <point x="149.467" y="308" type="qcurve" smooth="yes"/>
      <point x="120.772" y="173" type="line" smooth="yes"/>
      <point x="111.42" y="129"/>
      <point x="131.666" y="69"/>
      <point x="184.077" y="38"/>
      <point x="224.077" y="38" type="qcurve" smooth="yes"/>
      <point x="267.077" y="38"/>
      <point x="329.454" y="68"/>
      <point x="371.42" y="129"/>
      <point x="380.772" y="173" type="qcurve" smooth="yes"/>
    </contour>
  </outline>
</glyph>
<glyph name="zeta" format="1">
  <advance width="412"/>
  <unicode hex="03B6"/>
  <outline>
    <contour>
      <point x="525.587" y="652" type="line"/>
      <point x="525.587" y="652"/>
      <point x="473.36" y="618"/>
      <point x="387.906" y="550"/>
      <point x="336.853" y="498" type="qcurve" smooth="yes"/>
      <point x="303.839" y="465"/>
      <point x="244.385" y="397"/>
      <point x="218.371" y="364" type="qcurve"/>
      <point x="181.955" y="315"/>
      <point x="131.188" y="222"/>
      <point x="120.898" y="183" type="qcurve" smooth="yes"/>
      <point x="113.309" y="152"/>
      <point x="120.256" y="100"/>
      <point x="138.43" y="82" type="qcurve" smooth="yes"/>
      <point x="155.029" y="66"/>
      <point x="215.84" y="51"/>
      <point x="307.903" y="56"/>
      <point x="369.091" y="71" type="qcurve"/>
      <point x="309.576" y="-209" type="line"/>
      <point x="259.102" y="-183" type="line"/>
      <point x="299.7" y="8" type="line"/>
      <point x="223.3" y="-8"/>
      <point x="113.188" y="15"/>
      <point x="84.6278" y="50" type="qcurve" smooth="yes"/>
      <point x="65.5166" y="73"/>
      <point x="55.183" y="142"/>
      <point x="65.1104" y="184" type="qcurve" smooth="yes"/>
      <point x="75.4629" y="228"/>
      <point x="129.781" y="333"/>
      <point x="176.747" y="394" type="qcurve" smooth="yes"/>
      <point x="200.337" y="425"/>
      <point x="258.728" y="488"/>
      <point x="293.742" y="521" type="qcurve" smooth="yes"/>
      <point x="315.206" y="542"/>
      <point x="362.558" y="586"/>
      <point x="413.911" y="630"/>
      <point x="441.374" y="651" type="qcurve"/>
      <point x="232.374" y="651" type="line"/>
      <point x="242.364" y="698" type="line"/>
      <point x="513.364" y="698" type="line"/>
    </contour>
  </outline>
</glyph>
<glyph name="xi" format="1">
  <advance width="430"/>
  <unicode hex="03BE"/>
  <outline>
    <contour>
      <point x="496.949" y="649" type="line"/>
      <point x="496.949" y="649"/>
      <point x="469.949" y="649"/>
      <point x="429.949" y="649"/>
      <point x="389.949" y="649"/>
      <point x="375.949" y="649" type="qcurve" smooth="yes"/>
      <point x="332.949" y="649"/>
      <point x="273.621" y="591"/>
      <point x="264.418" y="543" type="qcurve"/>
      <point x="260.404" y="510"/>
      <point x="275.288" y="453"/>
      <point x="319.573" y="412"/>
      <point x="358.66" y="403" type="qcurve" smooth="yes"/>
      <point x="363.448" y="402"/>
      <point x="377.598" y="398"/>
      <point x="388.96" y="395"/>
      <point x="388.96" y="395" type="qcurve"/>
      <point x="361.545" y="346" type="line"/>
      <point x="361.545" y="346"/>
      <point x="303.095" y="358"/>
      <point x="256.095" y="358" type="qcurve" smooth="yes"/>
      <point x="238.095" y="358"/>
      <point x="189.694" y="342"/>
      <point x="146.917" y="296"/>
      <point x="137.352" y="251" type="qcurve" smooth="yes"/>
      <point x="121.197" y="175" type="line" smooth="yes"/>
      <point x="113.545" y="139"/>
      <point x="114.28" y="86"/>
      <point x="139.053" y="52"/>
      <point x="197.652" y="36"/>
      <point x="248.077" y="38" type="qcurve" smooth="yes"/>
      <point x="262.29" y="39"/>
      <point x="308.14" y="43"/>
      <point x="358.778" y="46"/>
      <point x="400.628" y="50"/>
      <point x="410.84" y="51" type="qcurve"/>
      <point x="355.151" y="-211" type="line"/>
      <point x="302.126" y="-197" type="line"/>
      <point x="343.15" y="-4" type="line"/>
      <point x="326.937" y="-5"/>
      <point x="289.3" y="-8"/>
      <point x="254.087" y="-9"/>
      <point x="240.874" y="-10" type="qcurve" smooth="yes"/>
      <point x="176.449" y="-12"/>
      <point x="85.4009" y="16"/>
      <point x="48.1929" y="95"/>
      <point x="63.7095" y="168" type="qcurve" smooth="yes"/>
      <point x="81.9894" y="254" type="line" smooth="yes"/>
      <point x="90.0665" y="292"/>
      <point x="119.757" y="347"/>
      <point x="160.409" y="383"/>
      <point x="209.448" y="402"/>
      <point x="236.873" y="404" type="qcurve"/>
      <point x="239.873" y="404"/>
      <point x="243.873" y="404"/>
      <point x="244.873" y="404" type="qcurve"/>
      <point x="222.187" y="429"/>
      <point x="204.602" y="478"/>
      <point x="204.592" y="525"/>
      <point x="208.056" y="546" type="qcurve" smooth="yes"/>
      <point x="216.621" y="591"/>
      <point x="264.287" y="660"/>
      <point x="337.79" y="700"/>
      <point x="383.79" y="700" type="qcurve" smooth="yes"/>
      <point x="412.79" y="700"/>
      <point x="480.79" y="700"/>
      <point x="529.79" y="700"/>
      <point x="529.79" y="700" type="qcurve"/>
    </contour>
  </outline>
</glyph>
<glyph name="pi" format="1">
  <advance width="472"/>
  <unicode hex="03C0"/>
  <outline>
    <contour>
      <point x="427.666" y="69" type="line"/>
      <point x="426.691" y="55"/>
      <point x="438.227" y="34"/>
      <point x="448.526" y="26" type="qcurve"/>
      <point x="414.725" y="-6" type="line"/>
      <point x="414.725" y="-6"/>
      <point x="398.213" y="1"/>
      <point x="380.251" y="20"/>
      <point x="369.265" y="53"/>
      <point x="374.579" y="78" type="qcurve" smooth="yes"/>
      <point x="455.076" y="452" type="line"/>
      <point x="190.076" y="452" type="line"/>
      <point x="94" y="0" type="line"/>
      <point x="38" y="0" type="line"/>
      <point x="143.853" y="498" type="line"/>
      <point x="518.853" y="498" type="line"/>
    </contour>
  </outline>
</glyph>
<glyph name="sigma" format="1">
  <advance width="468"/>
  <unicode hex="03C3"/>
  <outline>
    <contour>
      <point x="552.467" y="515" type="line"/>
      <point x="536.641" y="497"/>
      <point x="504.114" y="471"/>
      <point x="471.713" y="455"/>
      <point x="455.863" y="451" type="qcurve"/>
      <point x="466.462" y="435"/>
      <point x="476.496" y="374"/>
      <point x="464.806" y="319" type="qcurve" smooth="yes"/>
      <point x="436.11" y="184" type="line" smooth="yes"/>
      <point x="418.043" y="99"/>
      <point x="305.874" y="-10"/>
      <point x="213.874" y="-10" type="qcurve" smooth="yes"/>
      <point x="151.874" y="-10"/>
      <point x="78.9274" y="42"/>
      <point x="55.6323" y="130"/>
      <point x="67.1104" y="184" type="qcurve" smooth="yes"/>
      <point x="95.8055" y="319" type="line" smooth="yes"/>
      <point x="111.747" y="394"/>
      <point x="185.389" y="477"/>
      <point x="278.404" y="510"/>
      <point x="322.404" y="510" type="qcurve" smooth="yes"/>
      <point x="358.404" y="510"/>
      <point x="420.066" y="499"/>
      <point x="441.703" y="502" type="qcurve" smooth="yes"/>
      <point x="458.128" y="504"/>
      <point x="505.592" y="525"/>
      <point x="524.993" y="541" type="qcurve"/>
    </contour>
    <contour>
      <point x="410.781" y="333" type="line" smooth="yes"/>
      <point x="415.883" y="357"/>
      <point x="417.535" y="393"/>
      <point x="413.486" y="421"/>
      <point x="405.737" y="441"/>
      <point x="401.013" y="447" type="qcurve"/>
      <point x="380.438" y="449"/>
      <point x="334.138" y="457"/>
      <point x="311.138" y="457" type="qcurve" smooth="yes"/>
      <point x="282.138" y="457"/>
      <point x="218.25" y="434"/>
      <point x="167.134" y="377"/>
      <point x="156.293" y="326" type="qcurve" smooth="yes"/>
      <point x="123.985" y="174" type="line" smooth="yes"/>
      <point x="115.483" y="134"/>
      <point x="134.729" y="74"/>
      <point x="185.502" y="40"/>
      <point x="225.502" y="40" type="qcurve" smooth="yes"/>
      <point x="267.502" y="40"/>
      <point x="328.517" y="73"/>
      <point x="368.27" y="133"/>
      <point x="376.985" y="174" type="qcurve" smooth="yes"/>
    </contour>
  </outline>
</glyph>
<glyph name="tau" format="1">
  <advance width="350"/>
  <unicode hex="03C4"/>
  <outline>
    <contour>
      <point x="224.057" y="132" type="line" smooth="yes"/>
      <point x="218.531" y="106"/>
      <point x="224.816" y="65"/>
      <point x="248.077" y="38"/>
      <point x="268.377" y="30" type="qcurve"/>
      <point x="243.237" y="-13" type="line"/>
      <point x="190.638" y="3"/>
      <point x="155.517" y="73"/>
      <point x="168.057" y="132" type="qcurve" smooth="yes"/>
      <point x="234.8" y="446" type="line"/>
      <point x="114.8" y="446" type="line"/>
      <point x="125.853" y="498" type="line"/>
      <point x="428.853" y="498" type="line"/>
      <point x="417.8" y="446" type="line"/>
      <point x="290.8" y="446" type="line"/>
    </contour>
  </outline>
</glyph>
<glyph name="omega" format="1">
  <advance width="594"/>
  <unicode hex="03C9"/>
    <anchor name="tonos" x="412.843" y="545"/>
  <outline>
    <contour>
      <point x="560.641" y="497" type="line"/>
      <point x="658.351" y="458"/>
      <point x="627.955" y="315" type="qcurve" smooth="yes"/>
      <point x="600.536" y="186" type="line" smooth="yes"/>
      <point x="579.492" y="87"/>
      <point x="479.237" y="-13"/>
      <point x="399.237" y="-13" type="qcurve" smooth="yes"/>
      <point x="375.237" y="-13"/>
      <point x="338.787" y="-1"/>
      <point x="312.676" y="22"/>
      <point x="305.502" y="40" type="qcurve"/>
      <point x="289.676" y="22"/>
      <point x="252.787" y="-1"/>
      <point x="212.237" y="-13"/>
      <point x="189.237" y="-13" type="qcurve" smooth="yes"/>
      <point x="109.237" y="-13"/>
      <point x="48.4924" y="87"/>
      <point x="69.5355" y="186" type="qcurve" smooth="yes"/>
      <point x="96.9553" y="315" type="line" smooth="yes"/>
      <point x="112.047" y="386"/>
      <point x="186.602" y="478"/>
      <point x="244.641" y="497" type="qcurve"/>
      <point x="266.288" y="453" type="line"/>
      <point x="222.737" y="441"/>
      <point x="166.134" y="377"/>
      <point x="154.868" y="324" type="qcurve" smooth="yes"/>
      <point x="123.41" y="176" type="line" smooth="yes"/>
      <point x="108.744" y="107"/>
      <point x="154.502" y="40"/>
      <point x="196.502" y="40" type="qcurve" smooth="yes"/>
      <point x="239.502" y="40"/>
      <point x="286.618" y="97"/>
      <point x="302.159" y="156" type="qcurve"/>
      <point x="331.917" y="296" type="line"/>
      <point x="388.917" y="296" type="line"/>
      <point x="359.159" y="156" type="line" smooth="yes"/>
      <point x="346.618" y="97"/>
      <point x="370.502" y="40"/>
      <point x="412.502" y="40" type="qcurve" smooth="yes"/>
      <point x="455.502" y="40"/>
      <point x="527.744" y="107"/>
      <point x="542.41" y="176" type="qcurve" smooth="yes"/>
      <point x="573.868" y="324" type="line" smooth="yes"/>
      <point x="585.134" y="377"/>
      <point x="557.737" y="441"/>
      <point x="519.288" y="453" type="qcurve"/>
    </contour>
    <contour>
      <point x="412.843" y="545" type="move" name="tonos"/>
    </contour>
  </outline>
</glyph>
<glyph name="quotesinglbase" format="1">
  <advance width="139"/>
  <unicode hex="201A"/>
  <outline>
    <contour>
      <point x="20.1838" y="-65" type="line"/>
      <point x="39.435" y="-45"/>
      <point x="61.7247" y="-6"/>
      <point x="66.1256" y="10" type="qcurve"/>
      <point x="55.5507" y="12"/>
      <point x="43.3767" y="30"/>
      <point x="46.1399" y="43" type="qcurve" smooth="yes"/>
      <point x="49.1157" y="57"/>
      <point x="73.1543" y="76"/>
      <point x="86.1543" y="76" type="qcurve" smooth="yes"/>
      <point x="100.154" y="76"/>
      <point x="115.328" y="58"/>
      <point x="113.14" y="43" type="qcurve"/>
      <point x="108.039" y="19"/>
      <point x="88.9614" y="-19"/>
      <point x="65.5847" y="-49"/>
      <point x="44.1211" y="-70"/>
      <point x="34.6332" y="-77" type="qcurve"/>
    </contour>
  </outline>
</glyph>
<glyph name="ellipsis" format="1">
  <advance width="488"/>
  <unicode hex="2026"/>
  <outline>
    <contour>
      <point x="81.3911" y="63" type="qcurve" smooth="yes"/>
      <point x="95.3911" y="63"/>
      <point x="110.14" y="43"/>
      <point x="107.164" y="29" type="qcurve" smooth="yes"/>
      <point x="104.401" y="16"/>
      <point x="81.1498" y="-4"/>
      <point x="67.1498" y="-4" type="qcurve" smooth="yes"/>
      <point x="53.1498" y="-4"/>
      <point x="38.4009" y="16"/>
      <point x="41.1641" y="29" type="qcurve" smooth="yes"/>
      <point x="44.1399" y="43"/>
      <point x="67.3911" y="63"/>
    </contour>
    <contour>
      <point x="256.391" y="63" type="qcurve" smooth="yes"/>
      <point x="269.391" y="63"/>
      <point x="285.14" y="43"/>
      <point x="282.164" y="29" type="qcurve" smooth="yes"/>
      <point x="279.401" y="16"/>
      <point x="255.15" y="-4"/>
      <point x="242.15" y="-4" type="qcurve" smooth="yes"/>
      <point x="228.15" y="-4"/>
      <point x="212.401" y="16"/>
      <point x="215.164" y="29" type="qcurve" smooth="yes"/>
      <point x="218.14" y="43"/>
      <point x="242.391" y="63"/>
    </contour>
    <contour>
      <point x="434.391" y="63" type="qcurve" smooth="yes"/>
      <point x="448.391" y="63"/>
      <point x="463.14" y="43"/>
      <point x="460.164" y="29" type="qcurve" smooth="yes"/>
      <point x="457.401" y="16"/>
      <point x="434.15" y="-4"/>
      <point x="420.15" y="-4" type="qcurve" smooth="yes"/>
      <point x="406.15" y="-4"/>
      <point x="391.401" y="16"/>
      <point x="394.164" y="29" type="qcurve" smooth="yes"/>
      <point x="397.14" y="43"/>
      <point x="420.391" y="63"/>
    </contour>
  </outline>
</glyph>
<glyph name="perthousand" format="1">
  <advance width="1055"/>
  <unicode hex="2030"/>
  <outline>
    <contour>
      <point x="49" y="0" type="line"/>
      <point x="734.365" y="698" type="line"/>
      <point x="798.365" y="698" type="line"/>
      <point x="117" y="0" type="line"/>
    </contour>
    <contour>
      <point x="326.34" y="712" type="qcurve" smooth="yes"/>
      <point x="366.34" y="712"/>
      <point x="423.051" y="673"/>
      <point x="449.022" y="607"/>
      <point x="440.307" y="566" type="qcurve" smooth="yes"/>
      <point x="431.805" y="526"/>
      <point x="377.776" y="460"/>
      <point x="304.486" y="421"/>
      <point x="264.486" y="421" type="qcurve" smooth="yes"/>
      <point x="224.486" y="421"/>
      <point x="165.776" y="460"/>
      <point x="140.805" y="526"/>
      <point x="149.307" y="566" type="qcurve" smooth="yes"/>
      <point x="158.022" y="607"/>
      <point x="211.051" y="673"/>
      <point x="286.34" y="712"/>
    </contour>
    <contour>
      <point x="315.5" y="661" type="qcurve" smooth="yes"/>
      <point x="289.5" y="661"/>
      <point x="239.973" y="635"/>
      <point x="205.833" y="592"/>
      <point x="200.307" y="566" type="qcurve" smooth="yes"/>
      <point x="194.993" y="541"/>
      <point x="210.853" y="498"/>
      <point x="249.327" y="472"/>
      <point x="275.327" y="472" type="qcurve" smooth="yes"/>
      <point x="301.327" y="472"/>
      <point x="348.853" y="498"/>
      <point x="382.993" y="541"/>
      <point x="388.307" y="566" type="qcurve" smooth="yes"/>
      <point x="393.833" y="592"/>
      <point x="377.973" y="635"/>
      <point x="341.5" y="661"/>
    </contour>
    <contour>
      <point x="592.666" y="276" type="qcurve" smooth="yes"/>
      <point x="633.666" y="276"/>
      <point x="690.376" y="237"/>
      <point x="715.347" y="171"/>
      <point x="706.845" y="131" type="qcurve" smooth="yes"/>
      <point x="698.343" y="91"/>
      <point x="645.314" y="25"/>
      <point x="572.024" y="-14"/>
      <point x="531.024" y="-14" type="qcurve" smooth="yes"/>
      <point x="491.024" y="-14"/>
      <point x="433.314" y="25"/>
      <point x="408.343" y="91"/>
      <point x="416.845" y="131" type="qcurve" smooth="yes"/>
      <point x="425.347" y="171"/>
      <point x="478.376" y="237"/>
      <point x="552.666" y="276"/>
    </contour>
    <contour>
      <point x="582.038" y="226" type="qcurve" smooth="yes"/>
      <point x="557.038" y="226"/>
      <point x="508.724" y="201"/>
      <point x="473.584" y="158"/>
      <point x="467.845" y="131" type="qcurve" smooth="yes"/>
      <point x="462.318" y="105"/>
      <point x="479.179" y="62"/>
      <point x="516.865" y="37"/>
      <point x="541.865" y="37" type="qcurve" smooth="yes"/>
      <point x="567.865" y="37"/>
      <point x="616.179" y="62"/>
      <point x="651.318" y="105"/>
      <point x="656.845" y="131" type="qcurve" smooth="yes"/>
      <point x="662.584" y="158"/>
      <point x="645.724" y="201"/>
      <point x="608.038" y="226"/>
    </contour>
    <contour>
      <point x="938.666" y="276" type="qcurve" smooth="yes"/>
      <point x="978.666" y="276"/>
      <point x="1036.38" y="237"/>
      <point x="1061.35" y="171"/>
      <point x="1052.84" y="131" type="qcurve" smooth="yes"/>
      <point x="1044.34" y="91"/>
      <point x="991.314" y="25"/>
      <point x="917.024" y="-14"/>
      <point x="877.024" y="-14" type="qcurve" smooth="yes"/>
      <point x="837.024" y="-14"/>
      <point x="779.314" y="25"/>
      <point x="754.343" y="91"/>
      <point x="762.845" y="131" type="qcurve" smooth="yes"/>
      <point x="771.347" y="171"/>
      <point x="824.376" y="237"/>
      <point x="898.666" y="276"/>
    </contour>
    <contour>
      <point x="928.038" y="226" type="qcurve" smooth="yes"/>
      <point x="902.038" y="226"/>
      <point x="852.724" y="201"/>
      <point x="818.584" y="158"/>
      <point x="812.845" y="131" type="qcurve" smooth="yes"/>
      <point x="807.318" y="105"/>
      <point x="823.179" y="62"/>
      <point x="861.865" y="37"/>
      <point x="887.865" y="37" type="qcurve" smooth="yes"/>
      <point x="913.865" y="37"/>
      <point x="961.179" y="62"/>
      <point x="995.318" y="105"/>
      <point x="1000.84" y="131" type="qcurve" smooth="yes"/>
      <point x="1006.58" y="158"/>
      <point x="990.724" y="201"/>
      <point x="954.038" y="226"/>
    </contour>
  </outline>
</glyph>
<glyph name="fraction" format="1">
  <advance width="415"/>
  <unicode hex="2044"/>
  <outline>
    <contour>
      <point x="-6.01889" y="-113" type="line"/>
      <point x="510.234" y="815" type="line"/>
      <point x="572.234" y="815" type="line"/>
      <point x="50.9811" y="-113" type="line"/>
    </contour>
  </outline>
</glyph>
<glyph name="trademark" format="1">
  <advance width="428"/>
  <unicode hex="2122"/>
  <outline>
    <contour>
      <point x="268.138" y="664" type="line"/>
      <point x="235.829" y="512" type="line"/>
      <point x="202.829" y="512" type="line"/>
      <point x="235.138" y="664" type="line"/>
      <point x="164.138" y="664" type="line"/>
      <point x="171.364" y="698" type="line"/>
      <point x="381.364" y="698" type="line"/>
      <point x="412.244" y="561" type="line"/>
      <point x="499.364" y="698" type="line"/>
      <point x="541.364" y="698" type="line"/>
      <point x="501.829" y="512" type="line"/>
      <point x="470.829" y="512" type="line"/>
      <point x="500.374" y="651" type="line"/>
      <point x="411.829" y="512" type="line"/>
      <point x="390.829" y="512" type="line"/>
      <point x="362.374" y="651" type="line"/>
      <point x="332.829" y="512" type="line"/>
      <point x="298.829" y="512" type="line"/>
      <point x="331.138" y="664" type="line"/>
    </contour>
  </outline>
</glyph>
<glyph name="ff" format="1">
  <advance width="494"/>
  <unicode hex="FB00"/>
  <outline>
    <contour>
      <point x="587.336" y="632" type="line"/>
      <point x="565.886" y="644"/>
      <point x="522.886" y="644"/>
      <point x="500.123" y="631" type="qcurve" smooth="yes"/>
      <point x="478.36" y="618"/>
      <point x="450.645" y="577"/>
      <point x="444.481" y="548" type="qcurve" smooth="yes"/>
      <point x="433.853" y="498" type="line"/>
      <point x="547.853" y="498" type="line"/>
      <point x="512.8" y="446" type="line"/>
      <point x="422.8" y="446" type="line"/>
      <point x="328" y="0" type="line"/>
      <point x="271" y="0" type="line"/>
      <point x="390.032" y="560" type="line" smooth="yes"/>
      <point x="393.433" y="576"/>
      <point x="406.384" y="604"/>
      <point x="414.36" y="618" type="qcurve"/>
      <point x="396.336" y="632"/>
      <point x="358.162" y="650"/>
      <point x="339.374" y="651" type="qcurve"/>
      <point x="312.012" y="654"/>
      <point x="260.399" y="637"/>
      <point x="220.408" y="590"/>
      <point x="211.481" y="548" type="qcurve" smooth="yes"/>
      <point x="200.853" y="498" type="line"/>
      <point x="314.853" y="498" type="line"/>
      <point x="280.8" y="446" type="line"/>
      <point x="189.8" y="446" type="line"/>
      <point x="95" y="0" type="line"/>
      <point x="39" y="0" type="line"/>
      <point x="158.032" y="560" type="line" smooth="yes"/>
      <point x="166.959" y="602"/>
      <point x="217.775" y="667"/>
      <point x="289.64" y="704"/>
      <point x="329.64" y="704" type="qcurve" smooth="yes"/>
      <point x="366.64" y="704"/>
      <point x="428.176" y="683"/>
      <point x="453.712" y="662" type="qcurve"/>
      <point x="477.538" y="680"/>
      <point x="530.364" y="698"/>
      <point x="555.364" y="698" type="qcurve" smooth="yes"/>
      <point x="572.364" y="698"/>
      <point x="607.451" y="689"/>
      <point x="617.751" y="681" type="qcurve"/>
    </contour>
  </outline>
</glyph>
<glyph name="ffl" format="1">
  <advance width="596"/>
  <unicode hex="FB04"/>
  <outline>
    <contour>
      <point x="631.273" y="627" type="line"/>
      <point x="595.524" y="647"/>
      <point x="535.524" y="647"/>
      <point x="513.186" y="636" type="qcurve" smooth="yes"/>
      <point x="485.423" y="623"/>
      <point x="451.708" y="582"/>
      <point x="445.969" y="555" type="qcurve" smooth="yes"/>
      <point x="433.853" y="498" type="line"/>
      <point x="547.853" y="498" type="line"/>
      <point x="512.8" y="446" type="line"/>
      <point x="422.8" y="446" type="line"/>
      <point x="328" y="0" type="line"/>
      <point x="268" y="0" type="line"/>
      <point x="386.819" y="559" type="line" smooth="yes"/>
      <point x="389.157" y="570"/>
      <point x="397.196" y="589"/>
      <point x="408.447" y="609"/>
      <point x="414.36" y="618" type="qcurve"/>
      <point x="395.336" y="632"/>
      <point x="357.949" y="649"/>
      <point x="339.162" y="650" type="qcurve"/>
      <point x="309.012" y="654"/>
      <point x="256.973" y="635"/>
      <point x="219.983" y="588"/>
      <point x="211.481" y="548" type="qcurve" smooth="yes"/>
      <point x="200.853" y="498" type="line"/>
      <point x="314.853" y="498" type="line"/>
      <point x="280.8" y="446" type="line"/>
      <point x="189.8" y="446" type="line"/>
      <point x="95" y="0" type="line"/>
      <point x="39" y="0" type="line"/>
      <point x="157.819" y="559" type="line" smooth="yes"/>
      <point x="166.534" y="600"/>
      <point x="208.437" y="656"/>
      <point x="260.451" y="689"/>
      <point x="311.64" y="704"/>
      <point x="330.64" y="704" type="qcurve" smooth="yes"/>
      <point x="366.64" y="704"/>
      <point x="429.176" y="683"/>
      <point x="453.712" y="662" type="qcurve"/>
      <point x="477.964" y="682"/>
      <point x="540.427" y="703"/>
      <point x="576.427" y="703" type="qcurve" smooth="yes"/>
      <point x="612.427" y="703"/>
      <point x="669.389" y="684"/>
      <point x="695.138" y="664" type="qcurve"/>
      <point x="554" y="0" type="line"/>
      <point x="498" y="0" type="line"/>
    </contour>
  </outline>
</glyph>
<glyph name="commaturnedabovecomb" format="1">
  <advance width="266"/>
    <anchor name="top" x="292.417" y="750"/>
    <anchor name="_top" x="260.534" y="600"/>
    <anchor name="top.1" x="292.417" y="750"/>
    <anchor name="_top.1" x="260.534" y="600"/>
  <outline>
    <contour>
      <point x="320.222" y="716" type="line"/>
      <point x="300.182" y="697"/>
      <point x="279.678" y="657"/>
      <point x="274.277" y="641" type="qcurve"/>
      <point x="284.851" y="639"/>
      <point x="297.025" y="621"/>
      <point x="294.261" y="608" type="qcurve" smooth="yes"/>
      <point x="291.497" y="595"/>
      <point x="268.245" y="575"/>
      <point x="254.245" y="575" type="qcurve" smooth="yes"/>
      <point x="240.245" y="575"/>
      <point x="225.072" y="593"/>
      <point x="227.261" y="608" type="qcurve"/>
      <point x="232.363" y="632"/>
      <point x="251.442" y="670"/>
      <point x="274.82" y="700"/>
      <point x="297.497" y="722"/>
      <point x="305.773" y="728" type="qcurve"/>
    </contour>
    <contour>
      <point x="292.417" y="750" type="move" name="top"/>
    </contour>
    <contour>
      <point x="260.534" y="600" type="move" name="_top"/>
    </contour>
    <contour>
      <point x="292.417" y="750" type="move" name="top.1"/>
    </contour>
    <contour>
      <point x="260.534" y="600" type="move" name="_top.1"/>
    </contour>
  </outline>
</glyph>
